<svg version="1.1" id="Layer_1" xmlns="http://www.w3.org/2000/svg" xmlns:xlink="http://www.w3.org/1999/xlink" x="0px" y="0px"
	 width="100%" viewBox="0 0 512 512" enable-background="new 0 0 512 512" xml:space="preserve">
<path fill="#010101" opacity="1.000000" stroke="none" 
	d="
M513.000000,190.000000 
	C513.000000,297.973755 513.000000,405.447510 513.000000,512.960632 
	C342.401245,512.960632 171.802460,512.960632 1.101843,512.960632 
	C1.101843,342.442932 1.101843,171.885803 1.101843,1.164328 
	C171.666534,1.164328 342.333252,1.164328 513.000000,1.164328 
	C513.000000,63.864170 513.000000,126.682083 513.000000,190.000000 
M281.000854,227.486221 
	C281.000854,181.547699 281.000854,135.609177 281.000854,89.567589 
	C222.062546,89.567589 163.671326,89.567589 105.328873,89.567589 
	C105.328873,165.312668 105.328873,240.735229 105.328873,316.157806 
	C109.252335,301.911774 111.276779,286.651520 128.330231,280.894989 
	C126.034882,280.894989 123.739525,280.894989 121.224724,280.894989 
	C121.224724,264.929230 121.224724,249.183777 121.224724,233.237106 
	C142.486176,233.237106 163.549500,233.237106 184.737106,233.237106 
	C184.737106,249.204834 184.737106,264.935272 184.737106,280.987122 
	C170.253845,280.987122 156.027908,280.987122 141.801956,280.987122 
	C151.959045,284.601959 159.008362,291.086548 161.561722,301.599335 
	C162.612457,305.925476 162.629074,310.513397 163.000107,314.991882 
	C163.820740,324.896973 164.567886,334.808136 165.341766,344.675598 
	C185.838852,344.675598 205.878616,344.675598 225.970016,344.675598 
	C223.591248,330.559906 227.026672,323.037964 238.988663,315.389526 
	C249.547333,308.638367 261.139008,305.231110 274.791931,304.847198 
	C272.482635,302.770416 271.016418,301.488068 269.589661,300.163269 
	C249.807541,281.794800 230.066940,263.381378 210.230392,245.071884 
	C204.417938,239.706909 201.012070,233.376785 201.009537,225.371490 
	C201.008179,221.068771 201.001694,216.766068 201.001312,212.463348 
	C201.000183,199.464386 200.992996,186.465408 201.012192,173.466476 
	C201.014313,172.035828 201.171829,170.605423 201.246536,169.354660 
	C222.724014,169.354660 243.788681,169.354660 264.625183,169.354660 
	C264.625183,185.442139 264.625183,201.174011 264.625183,217.309448 
	C261.040558,217.309448 257.828613,217.309448 253.866547,217.309448 
	C263.122864,225.759750 271.739716,233.626236 281.000854,242.080948 
	C281.000854,236.797150 281.000854,232.637421 281.000854,227.486221 
M301.672455,282.831482 
	C278.959534,261.997314 256.265442,241.142548 233.518387,220.345688 
	C228.758377,215.993790 223.068375,215.950485 219.318192,219.969162 
	C215.661987,223.887100 216.300217,228.883530 221.255859,233.462692 
	C253.189209,262.970276 285.147430,292.450958 317.115814,321.920563 
	C320.365143,324.915894 323.735992,327.779449 327.169556,330.809235 
	C322.512634,335.313568 318.872375,338.834503 315.144684,342.440063 
	C311.839935,339.384644 308.548920,336.327667 305.242554,333.287354 
	C288.475281,317.869232 262.684082,316.841644 244.704422,330.833282 
	C241.806366,333.088501 240.232040,335.853577 241.372345,339.499268 
	C242.483994,343.053375 245.115707,344.871277 248.866364,344.993774 
	C249.365829,345.010071 249.865997,345.003052 250.365738,345.012573 
	C268.001740,345.349060 283.527405,351.276642 297.023773,362.601654 
	C300.851288,365.813354 304.680298,369.024475 308.561615,372.170502 
	C316.617920,378.700531 325.694946,383.144775 336.056976,384.198608 
	C342.990173,384.903748 350.092834,384.168060 356.971588,385.132935 
	C368.932831,386.810669 377.390106,382.524017 385.479004,373.593140 
	C399.555115,358.051880 414.483978,343.192322 429.988617,329.071716 
	C438.469421,321.347992 441.796448,313.340393 441.283630,301.910553 
	C440.520508,284.902069 435.330627,270.457062 423.182861,258.458282 
	C408.009827,243.471359 393.005768,228.313507 377.905396,213.252853 
	C372.784302,208.145218 367.543762,207.651306 363.553009,211.795502 
	C359.697266,215.799515 360.226074,220.867813 365.144287,225.784454 
	C370.901367,231.539734 376.735657,237.217850 382.591034,242.983170 
	C378.593201,247.000702 375.004120,250.607452 371.243103,254.386978 
	C369.953827,253.158981 368.738007,252.046509 367.572479,250.883636 
	C357.546875,240.880539 347.667908,230.723465 337.400238,220.975662 
	C335.231201,218.916443 331.463806,217.062836 328.770691,217.452042 
	C326.112732,217.836151 323.148407,220.756012 321.649139,223.336548 
	C319.724609,226.649048 321.444824,230.092590 324.120605,232.770599 
	C334.366302,243.024719 344.618835,253.271988 354.859100,263.531494 
	C356.090607,264.765320 357.262787,266.058350 358.176514,267.022308 
	C354.343018,271.052704 350.919891,274.651642 347.305267,278.451935 
	C345.999573,277.208466 344.786346,276.099304 343.624207,274.938965 
	C333.720093,265.049988 323.841248,255.135620 313.921051,245.262817 
	C308.785614,240.151901 303.560394,239.649963 299.566010,243.782578 
	C295.699463,247.782944 296.227356,252.845322 301.131622,257.772766 
	C311.122314,267.810699 321.155823,277.806000 331.158875,287.831696 
	C332.284760,288.960144 333.328064,290.171021 334.473389,291.412750 
	C330.565033,295.329895 326.977295,298.925720 323.303497,302.607788 
	C316.205963,296.113159 309.204834,289.706757 301.672455,282.831482 
M105.500000,457.000763 
	C116.817085,457.000763 128.134171,457.000763 139.369385,457.000763 
	C149.624039,434.910522 154.492661,412.084076 152.646271,387.970856 
	C151.413025,371.864960 150.186951,355.758392 148.919495,339.655151 
	C148.057129,328.698700 147.261322,317.734283 146.174652,306.799377 
	C145.620117,301.219360 141.611481,297.496338 136.489059,297.052979 
	C131.401093,296.612610 126.874458,299.790771 125.211754,305.054382 
	C124.712044,306.636292 124.389992,308.275421 124.009460,309.893738 
	C118.485397,333.385956 112.282059,356.665314 101.148453,378.261322 
	C99.357437,381.735352 97.062958,385.299438 94.113960,387.757355 
	C87.006569,393.681244 78.708107,394.790771 70.278671,390.807587 
	C61.505566,386.661957 57.038399,379.386108 57.023098,369.651428 
	C56.968891,335.164612 57.001244,300.677643 57.000805,266.190735 
	C57.000786,264.600983 57.000805,263.011200 57.000805,261.483124 
	C51.970913,266.216278 46.708530,270.333344 42.463196,275.316803 
	C28.699032,291.474121 22.675993,310.304047 25.786207,331.393829 
	C29.571890,357.063904 34.074841,382.627991 38.250328,408.240753 
	C41.050976,425.420166 47.954380,441.179077 54.566216,457.000763 
	C71.519608,457.000763 88.009804,457.000763 105.500000,457.000763 
M196.499939,73.242828 
	C223.332153,73.242775 250.164520,73.200264 276.996368,73.299850 
	C280.125061,73.311462 281.136566,72.399956 282.366730,69.270103 
	C284.752319,63.200748 287.500305,56.657818 291.973694,52.188335 
	C297.034668,47.131824 304.155853,44.137333 310.955658,39.887131 
	C308.153748,32.806389 302.460205,26.608017 293.748871,26.075968 
	C279.036499,25.177404 264.229431,25.829424 248.986343,25.829424 
	C248.986343,28.408014 249.048965,31.036394 248.975754,33.660988 
	C248.613251,46.655579 238.814301,56.943302 225.828156,57.105522 
	C203.833099,57.380268 181.828888,57.392799 159.834641,57.082661 
	C147.145615,56.903732 137.409943,46.576756 137.028549,33.834949 
	C136.945984,31.076900 137.016464,28.314272 137.016464,25.791857 
	C135.977112,25.481743 135.668091,25.309582 135.358566,25.308722 
	C123.526466,25.275860 111.694305,25.235430 99.862190,25.244982 
	C82.635910,25.258890 73.001839,34.945728 73.001106,52.243023 
	C72.996651,157.072937 72.998795,261.902832 72.999733,366.732758 
	C72.999748,367.899261 72.572311,369.348938 73.104736,370.178375 
	C74.608459,372.521027 76.196815,375.918884 78.340225,376.429108 
	C80.480415,376.938538 84.417801,375.117554 85.626221,373.135010 
	C87.585037,369.921387 88.862236,365.743011 88.868988,361.969147 
	C89.037407,267.805847 89.001198,173.642212 89.001198,79.478615 
	C89.001198,77.540710 89.001198,75.602806 89.001198,73.242935 
	C124.907234,73.242935 160.203583,73.242935 196.499939,73.242828 
M403.500000,56.999840 
	C375.007904,57.000210 346.515564,56.930962 318.023804,57.030487 
	C303.894806,57.079838 294.549774,68.923119 297.775513,82.645248 
	C300.627960,94.779564 303.732910,106.855225 306.796936,118.938896 
	C310.038452,131.722580 316.835907,136.988831 329.951172,136.998596 
	C340.217590,137.006241 350.483978,137.000137 360.999908,137.000137 
	C360.999908,143.191452 360.785553,148.843216 361.113495,154.463318 
	C361.232056,156.495132 362.150818,159.204834 363.640717,160.191757 
	C364.737854,160.918533 367.702118,159.828491 369.239716,158.721771 
	C377.615204,152.693298 385.881287,146.504837 394.020630,140.160553 
	C396.921661,137.899338 399.822144,136.884995 403.548615,136.921249 
	C421.541870,137.096329 439.537903,137.032242 457.532745,136.987930 
	C468.554108,136.960800 476.167236,131.092560 478.914337,120.417877 
	C482.020874,108.346428 485.069763,96.258186 487.958252,84.133072 
	C491.684448,68.491295 482.558685,57.027363 466.482727,57.006409 
	C445.821838,56.979477 425.160919,56.999844 403.500000,56.999840 
M210.500000,360.999359 
	C196.050415,360.999359 181.600845,360.999359 166.647446,360.999359 
	C167.064316,366.601318 167.439850,371.647888 167.838226,377.001312 
	C178.807755,377.001312 189.283310,376.957703 199.758362,377.013184 
	C211.009506,377.072754 218.033630,384.962097 216.880722,396.133209 
	C215.222534,412.200256 201.857925,424.593109 185.646423,424.961731 
	C179.354721,425.104797 173.057053,424.985107 166.633575,424.985107 
	C165.322739,430.480103 164.115479,435.540802 162.834808,440.909332 
	C206.023865,440.909332 248.658844,441.155151 291.287659,440.750275 
	C303.128815,440.637817 312.565247,429.846802 312.938812,417.907074 
	C313.157532,410.916870 313.096893,403.911865 312.909119,396.920258 
	C312.872437,395.554199 312.021729,393.764374 310.952606,392.942505 
	C302.788116,386.666107 294.297974,380.804749 286.253784,374.382660 
	C275.145844,365.514618 262.702911,360.909973 248.483566,360.985962 
	C236.156036,361.051849 223.827881,360.999481 210.500000,360.999359 
M408.919128,372.419067 
	C402.112640,379.187378 395.306152,385.955688 389.227051,392.000702 
	C401.721161,404.490814 413.772919,416.538757 425.303345,428.065491 
	C444.800964,408.562653 464.766937,388.591309 484.172241,369.180817 
	C472.447510,357.450043 460.401215,345.397583 448.140961,333.131012 
	C435.499603,345.794098 422.459442,358.856659 408.919128,372.419067 
M159.625687,25.235561 
	C157.512222,25.235561 155.398743,25.235561 152.992355,25.235561 
	C152.992355,28.112637 152.919540,30.427885 153.006989,32.737064 
	C153.210693,38.115368 156.021896,41.180397 161.393784,41.206051 
	C182.556381,41.307129 203.720230,41.307941 224.882629,41.182049 
	C229.964127,41.151829 232.752716,38.065216 232.987442,32.952076 
	C233.099396,30.513212 233.006699,28.064955 233.006699,25.235567 
	C208.521530,25.235567 184.560715,25.235567 159.625687,25.235561 
M60.667274,473.001495 
	C59.446449,473.799408 57.244568,474.516144 57.170700,475.408966 
	C56.806057,479.816254 57.004787,484.270203 57.004787,488.740662 
	C83.916931,488.740662 110.291603,488.740662 136.723022,488.740662 
	C136.723022,483.417419 136.723022,478.356445 136.723022,473.001404 
	C111.510696,473.001404 86.572800,473.001404 60.667274,473.001495 
M313.000214,171.500168 
	C313.000122,165.344620 313.087280,159.186813 312.928680,153.035339 
	C312.895691,151.756088 312.307709,150.047241 311.368347,149.310379 
	C306.759949,145.695297 301.946472,142.341614 297.234039,138.916382 
	C297.234039,167.675278 297.234039,196.833923 297.234039,226.304291 
	C299.917267,225.781784 302.328369,225.312271 304.739471,224.842758 
	C304.397186,224.594543 304.054901,224.346344 303.712616,224.098129 
	C306.500000,218.953033 309.374390,213.851959 312.016266,208.633163 
	C312.713074,207.256592 312.946899,205.518387 312.958862,203.942932 
	C313.038544,193.462479 313.000183,182.981125 313.000214,171.500168 
M244.359894,200.998337 
	C245.797791,200.923218 247.235703,200.848099 248.704803,200.771347 
	C248.704803,195.394775 248.704803,190.353043 248.704803,185.282959 
	C238.051468,185.282959 227.694168,185.282959 217.298676,185.282959 
	C217.298676,190.610458 217.298676,195.652374 217.298676,200.998367 
	C226.190292,200.998367 234.787292,200.998367 244.359894,200.998337 
M167.242584,264.983673 
	C167.823288,264.373138 168.887726,263.777710 168.907364,263.149628 
	C169.050903,258.560547 168.984695,253.964920 168.984695,249.249863 
	C158.122452,249.249863 147.764236,249.249863 137.266434,249.249863 
	C137.266434,254.543350 137.266434,259.585846 137.266434,264.996490 
	C147.113281,264.996490 156.698685,264.996490 167.242584,264.983673 
M198.366196,401.688843 
	C199.405655,398.994904 200.445114,396.300964 201.596573,393.316772 
	C190.155426,393.316772 179.601700,393.316772 168.869232,393.316772 
	C168.869232,398.591064 168.869232,403.547913 168.869232,409.002960 
	C173.614868,409.002960 178.403030,408.877930 183.182007,409.034363 
	C189.269379,409.233612 194.233902,407.203705 198.366196,401.688843 
z"/>
<path fill="#69D5F3" opacity="1.000000" stroke="none" 
	d="
M281.000854,227.981949 
	C281.000854,232.637421 281.000854,236.797150 281.000854,242.080948 
	C271.739716,233.626236 263.122864,225.759750 253.866547,217.309448 
	C257.828613,217.309448 261.040558,217.309448 264.625183,217.309448 
	C264.625183,201.174011 264.625183,185.442139 264.625183,169.354660 
	C243.788681,169.354660 222.724014,169.354660 201.246536,169.354660 
	C201.171829,170.605423 201.014313,172.035828 201.012192,173.466476 
	C200.992996,186.465408 201.000183,199.464386 201.001312,212.463348 
	C201.001694,216.766068 201.008179,221.068771 201.009537,225.371490 
	C201.012070,233.376785 204.417938,239.706909 210.230392,245.071884 
	C230.066940,263.381378 249.807541,281.794800 269.589661,300.163269 
	C271.016418,301.488068 272.482635,302.770416 274.791931,304.847198 
	C261.139008,305.231110 249.547333,308.638367 238.988663,315.389526 
	C227.026672,323.037964 223.591248,330.559906 225.970016,344.675598 
	C205.878616,344.675598 185.838852,344.675598 165.341766,344.675598 
	C164.567886,334.808136 163.820740,324.896973 163.000107,314.991882 
	C162.629074,310.513397 162.612457,305.925476 161.561722,301.599335 
	C159.008362,291.086548 151.959045,284.601959 141.801956,280.987122 
	C156.027908,280.987122 170.253845,280.987122 184.737106,280.987122 
	C184.737106,264.935272 184.737106,249.204834 184.737106,233.237106 
	C163.549500,233.237106 142.486176,233.237106 121.224724,233.237106 
	C121.224724,249.183777 121.224724,264.929230 121.224724,280.894989 
	C123.739525,280.894989 126.034882,280.894989 128.330231,280.894989 
	C111.276779,286.651520 109.252335,301.911774 105.328873,316.157806 
	C105.328873,240.735229 105.328873,165.312668 105.328873,89.567589 
	C163.671326,89.567589 222.062546,89.567589 281.000854,89.567589 
	C281.000854,135.609177 281.000854,181.547699 281.000854,227.981949 
M148.500000,105.002350 
	C139.413849,105.002350 130.327698,105.002350 121.309288,105.002350 
	C121.309288,121.326202 121.309288,137.042068 121.309288,152.694885 
	C142.661194,152.694885 163.704773,152.694885 184.690964,152.694885 
	C184.690964,136.674362 184.690964,120.958450 184.690964,105.002350 
	C172.757217,105.002350 161.128616,105.002350 148.500000,105.002350 
M217.501724,105.002350 
	C212.078735,105.002350 206.655731,105.002350 201.314301,105.002350 
	C201.314301,121.336311 201.314301,137.052292 201.314301,152.689819 
	C222.671371,152.689819 243.715057,152.689819 264.685913,152.689819 
	C264.685913,136.664047 264.685913,120.948067 264.685913,105.002350 
	C249.083954,105.002350 233.792618,105.002350 217.501724,105.002350 
M121.002350,207.463562 
	C121.002350,210.565186 121.002350,213.666809 121.002350,216.701233 
	C142.646835,216.701233 163.691071,216.701233 184.696442,216.701233 
	C184.696442,200.686676 184.696442,184.970291 184.696442,169.300522 
	C163.349594,169.300522 142.305313,169.300522 121.002350,169.300522 
	C121.002350,181.889664 121.002350,194.182327 121.002350,207.463562 
z"/>
<path fill="#EFCFB3" opacity="1.000000" stroke="none" 
	d="
M301.938080,283.065918 
	C309.204834,289.706757 316.205963,296.113159 323.303497,302.607788 
	C326.977295,298.925720 330.565033,295.329895 334.473389,291.412750 
	C333.328064,290.171021 332.284760,288.960144 331.158875,287.831696 
	C321.155823,277.806000 311.122314,267.810699 301.131622,257.772766 
	C296.227356,252.845322 295.699463,247.782944 299.566010,243.782578 
	C303.560394,239.649963 308.785614,240.151901 313.921051,245.262817 
	C323.841248,255.135620 333.720093,265.049988 343.624207,274.938965 
	C344.786346,276.099304 345.999573,277.208466 347.305267,278.451935 
	C350.919891,274.651642 354.343018,271.052704 358.176514,267.022308 
	C357.262787,266.058350 356.090607,264.765320 354.859100,263.531494 
	C344.618835,253.271988 334.366302,243.024719 324.120605,232.770599 
	C321.444824,230.092590 319.724609,226.649048 321.649139,223.336548 
	C323.148407,220.756012 326.112732,217.836151 328.770691,217.452042 
	C331.463806,217.062836 335.231201,218.916443 337.400238,220.975662 
	C347.667908,230.723465 357.546875,240.880539 367.572479,250.883636 
	C368.738007,252.046509 369.953827,253.158981 371.243103,254.386978 
	C375.004120,250.607452 378.593201,247.000702 382.591034,242.983170 
	C376.735657,237.217850 370.901367,231.539734 365.144287,225.784454 
	C360.226074,220.867813 359.697266,215.799515 363.553009,211.795502 
	C367.543762,207.651306 372.784302,208.145218 377.905396,213.252853 
	C393.005768,228.313507 408.009827,243.471359 423.182861,258.458282 
	C435.330627,270.457062 440.520508,284.902069 441.283630,301.910553 
	C441.796448,313.340393 438.469421,321.347992 429.988617,329.071716 
	C414.483978,343.192322 399.555115,358.051880 385.479004,373.593140 
	C377.390106,382.524017 368.932831,386.810669 356.971588,385.132935 
	C350.092834,384.168060 342.990173,384.903748 336.056976,384.198608 
	C325.694946,383.144775 316.617920,378.700531 308.561615,372.170502 
	C304.680298,369.024475 300.851288,365.813354 297.023773,362.601654 
	C283.527405,351.276642 268.001740,345.349060 250.365738,345.012573 
	C249.865997,345.003052 249.365829,345.010071 248.866364,344.993774 
	C245.115707,344.871277 242.483994,343.053375 241.372345,339.499268 
	C240.232040,335.853577 241.806366,333.088501 244.704422,330.833282 
	C262.684082,316.841644 288.475281,317.869232 305.242554,333.287354 
	C308.548920,336.327667 311.839935,339.384644 315.144684,342.440063 
	C318.872375,338.834503 322.512634,335.313568 327.169556,330.809235 
	C323.735992,327.779449 320.365143,324.915894 317.115814,321.920563 
	C285.147430,292.450958 253.189209,262.970276 221.255859,233.462692 
	C216.300217,228.883530 215.661987,223.887100 219.318192,219.969162 
	C223.068375,215.950485 228.758377,215.993790 233.518387,220.345688 
	C256.265442,241.142548 278.959534,261.997314 301.938080,283.065918 
z"/>
<path fill="#EFCFB3" opacity="1.000000" stroke="none" 
	d="
M105.000000,457.000763 
	C88.009804,457.000763 71.519608,457.000763 54.566216,457.000763 
	C47.954380,441.179077 41.050976,425.420166 38.250328,408.240753 
	C34.074841,382.627991 29.571890,357.063904 25.786207,331.393829 
	C22.675993,310.304047 28.699032,291.474121 42.463196,275.316803 
	C46.708530,270.333344 51.970913,266.216278 57.000805,261.483124 
	C57.000805,263.011200 57.000786,264.600983 57.000805,266.190735 
	C57.001244,300.677643 56.968891,335.164612 57.023098,369.651428 
	C57.038399,379.386108 61.505566,386.661957 70.278671,390.807587 
	C78.708107,394.790771 87.006569,393.681244 94.113960,387.757355 
	C97.062958,385.299438 99.357437,381.735352 101.148453,378.261322 
	C112.282059,356.665314 118.485397,333.385956 124.009460,309.893738 
	C124.389992,308.275421 124.712044,306.636292 125.211754,305.054382 
	C126.874458,299.790771 131.401093,296.612610 136.489059,297.052979 
	C141.611481,297.496338 145.620117,301.219360 146.174652,306.799377 
	C147.261322,317.734283 148.057129,328.698700 148.919495,339.655151 
	C150.186951,355.758392 151.413025,371.864960 152.646271,387.970856 
	C154.492661,412.084076 149.624039,434.910522 139.369385,457.000763 
	C128.134171,457.000763 116.817085,457.000763 105.000000,457.000763 
z"/>
<path fill="#959EA9" opacity="1.000000" stroke="none" 
	d="
M195.999939,73.242882 
	C160.203583,73.242935 124.907234,73.242935 89.001198,73.242935 
	C89.001198,75.602806 89.001198,77.540710 89.001198,79.478615 
	C89.001198,173.642212 89.037407,267.805847 88.868988,361.969147 
	C88.862236,365.743011 87.585037,369.921387 85.626221,373.135010 
	C84.417801,375.117554 80.480415,376.938538 78.340225,376.429108 
	C76.196815,375.918884 74.608459,372.521027 73.104736,370.178375 
	C72.572311,369.348938 72.999748,367.899261 72.999733,366.732758 
	C72.998795,261.902832 72.996651,157.072937 73.001106,52.243023 
	C73.001839,34.945728 82.635910,25.258890 99.862190,25.244982 
	C111.694305,25.235430 123.526466,25.275860 135.358566,25.308722 
	C135.668091,25.309582 135.977112,25.481743 137.016464,25.791857 
	C137.016464,28.314272 136.945984,31.076900 137.028549,33.834949 
	C137.409943,46.576756 147.145615,56.903732 159.834641,57.082661 
	C181.828888,57.392799 203.833099,57.380268 225.828156,57.105522 
	C238.814301,56.943302 248.613251,46.655579 248.975754,33.660988 
	C249.048965,31.036394 248.986343,28.408014 248.986343,25.829424 
	C264.229431,25.829424 279.036499,25.177404 293.748871,26.075968 
	C302.460205,26.608017 308.153748,32.806389 310.955658,39.887131 
	C304.155853,44.137333 297.034668,47.131824 291.973694,52.188335 
	C287.500305,56.657818 284.752319,63.200748 282.366730,69.270103 
	C281.136566,72.399956 280.125061,73.311462 276.996368,73.299850 
	C250.164520,73.200264 223.332153,73.242775 195.999939,73.242882 
z"/>
<path fill="#E5E8EC" opacity="1.000000" stroke="none" 
	d="
M404.000000,56.999840 
	C425.160919,56.999844 445.821838,56.979477 466.482727,57.006409 
	C482.558685,57.027363 491.684448,68.491295 487.958252,84.133072 
	C485.069763,96.258186 482.020874,108.346428 478.914337,120.417877 
	C476.167236,131.092560 468.554108,136.960800 457.532745,136.987930 
	C439.537903,137.032242 421.541870,137.096329 403.548615,136.921249 
	C399.822144,136.884995 396.921661,137.899338 394.020630,140.160553 
	C385.881287,146.504837 377.615204,152.693298 369.239716,158.721771 
	C367.702118,159.828491 364.737854,160.918533 363.640717,160.191757 
	C362.150818,159.204834 361.232056,156.495132 361.113495,154.463318 
	C360.785553,148.843216 360.999908,143.191452 360.999908,137.000137 
	C350.483978,137.000137 340.217590,137.006241 329.951172,136.998596 
	C316.835907,136.988831 310.038452,131.722580 306.796936,118.938896 
	C303.732910,106.855225 300.627960,94.779564 297.775513,82.645248 
	C294.549774,68.923119 303.894806,57.079838 318.023804,57.030487 
	C346.515564,56.930962 375.007904,57.000210 404.000000,56.999840 
M399.500000,73.001442 
	C376.079071,73.001442 352.658173,73.001442 329.296570,73.001442 
	C329.296570,78.645607 329.296570,83.714096 329.296570,88.713150 
	C371.981415,88.713150 414.370453,88.713150 456.703491,88.713150 
	C456.703491,83.354561 456.703491,78.286072 456.703491,73.001442 
	C437.772858,73.001442 419.136414,73.001442 399.500000,73.001442 
M377.500000,120.998558 
	C393.256073,120.998558 409.012115,120.998558 424.702637,120.998558 
	C424.702637,115.350266 424.702637,110.282501 424.702637,105.288376 
	C392.682831,105.288376 360.959869,105.288376 329.297272,105.288376 
	C329.297272,110.647980 329.297272,115.716019 329.297272,120.725677 
	C329.903687,120.850937 330.216187,120.971680 330.528809,120.971992 
	C345.852539,120.987373 361.176270,120.992386 377.500000,120.998558 
M456.931152,105.755371 
	C451.762177,105.406219 446.593170,105.057076 441.001404,104.679367 
	C441.001404,107.867950 441.001373,110.321335 441.001373,112.774719 
	C441.001373,115.393456 441.001404,118.012184 441.001404,120.998558 
	C443.874908,120.998558 446.329071,120.998558 448.783203,120.998558 
	C451.401306,120.998558 454.019409,120.998558 456.993103,120.998558 
	C456.993103,115.956711 456.993103,111.337906 456.931152,105.755371 
z"/>
<path fill="#959EA9" opacity="1.000000" stroke="none" 
	d="
M211.000000,360.999359 
	C223.827881,360.999481 236.156036,361.051849 248.483566,360.985962 
	C262.702911,360.909973 275.145844,365.514618 286.253784,374.382660 
	C294.297974,380.804749 302.788116,386.666107 310.952606,392.942505 
	C312.021729,393.764374 312.872437,395.554199 312.909119,396.920258 
	C313.096893,403.911865 313.157532,410.916870 312.938812,417.907074 
	C312.565247,429.846802 303.128815,440.637817 291.287659,440.750275 
	C248.658844,441.155151 206.023865,440.909332 162.834808,440.909332 
	C164.115479,435.540802 165.322739,430.480103 166.633575,424.985107 
	C173.057053,424.985107 179.354721,425.104797 185.646423,424.961731 
	C201.857925,424.593109 215.222534,412.200256 216.880722,396.133209 
	C218.033630,384.962097 211.009506,377.072754 199.758362,377.013184 
	C189.283310,376.957703 178.807755,377.001312 167.838226,377.001312 
	C167.439850,371.647888 167.064316,366.601318 166.647446,360.999359 
	C181.600845,360.999359 196.050415,360.999359 211.000000,360.999359 
M273.681763,379.612518 
	C271.027008,378.747894 268.409698,377.313690 265.709717,377.136047 
	C259.906342,376.754089 254.052963,376.832764 248.233688,377.064697 
	C239.993210,377.393097 233.524139,383.912659 233.045044,392.126709 
	C232.890137,394.782562 232.979752,397.454498 233.003220,400.118652 
	C233.111465,412.410706 240.365250,421.701721 251.949554,424.411438 
	C262.333954,426.840485 273.322388,421.616669 278.329102,411.870819 
	C283.591797,401.626556 281.691498,386.636993 273.681763,379.612518 
z"/>
<path fill="#FBD770" opacity="1.000000" stroke="none" 
	d="
M409.169189,372.169128 
	C422.459442,358.856659 435.499603,345.794098 448.140961,333.131012 
	C460.401215,345.397583 472.447510,357.450043 484.172241,369.180817 
	C464.766937,388.591309 444.800964,408.562653 425.303345,428.065491 
	C413.772919,416.538757 401.721161,404.490814 389.227051,392.000702 
	C395.306152,385.955688 402.112640,379.187378 409.169189,372.169128 
z"/>
<path fill="#E1E4E8" opacity="1.000000" stroke="none" 
	d="
M160.112793,25.235565 
	C184.560715,25.235567 208.521530,25.235567 233.006699,25.235567 
	C233.006699,28.064955 233.099396,30.513212 232.987442,32.952076 
	C232.752716,38.065216 229.964127,41.151829 224.882629,41.182049 
	C203.720230,41.307941 182.556381,41.307129 161.393784,41.206051 
	C156.021896,41.180397 153.210693,38.115368 153.006989,32.737064 
	C152.919540,30.427885 152.992355,28.112637 152.992355,25.235561 
	C155.398743,25.235561 157.512222,25.235561 160.112793,25.235565 
z"/>
<path fill="#FCD770" opacity="1.000000" stroke="none" 
	d="
M61.151085,473.001465 
	C86.572800,473.001404 111.510696,473.001404 136.723022,473.001404 
	C136.723022,478.356445 136.723022,483.417419 136.723022,488.740662 
	C110.291603,488.740662 83.916931,488.740662 57.004787,488.740662 
	C57.004787,484.270203 56.806057,479.816254 57.170700,475.408966 
	C57.244568,474.516144 59.446449,473.799408 61.151085,473.001465 
z"/>
<path fill="#959EA9" opacity="1.000000" stroke="none" 
	d="
M313.000214,172.000122 
	C313.000183,182.981125 313.038544,193.462479 312.958862,203.942932 
	C312.946899,205.518387 312.713074,207.256592 312.016266,208.633163 
	C309.374390,213.851959 306.500000,218.953033 303.712616,224.098129 
	C304.054901,224.346344 304.397186,224.594543 304.739471,224.842758 
	C302.328369,225.312271 299.917267,225.781784 297.234039,226.304291 
	C297.234039,196.833923 297.234039,167.675278 297.234039,138.916382 
	C301.946472,142.341614 306.759949,145.695297 311.368347,149.310379 
	C312.307709,150.047241 312.895691,151.756088 312.928680,153.035339 
	C313.087280,159.186813 313.000122,165.344620 313.000214,172.000122 
z"/>
<path fill="#EF7385" opacity="1.000000" stroke="none" 
	d="
M243.872101,200.998352 
	C234.787292,200.998367 226.190292,200.998367 217.298676,200.998367 
	C217.298676,195.652374 217.298676,190.610458 217.298676,185.282959 
	C227.694168,185.282959 238.051468,185.282959 248.704803,185.282959 
	C248.704803,190.353043 248.704803,195.394775 248.704803,200.771347 
	C247.235703,200.848099 245.797791,200.923218 243.872101,200.998352 
z"/>
<path fill="#EF7385" opacity="1.000000" stroke="none" 
	d="
M166.763336,264.990082 
	C156.698685,264.996490 147.113281,264.996490 137.266434,264.996490 
	C137.266434,259.585846 137.266434,254.543350 137.266434,249.249863 
	C147.764236,249.249863 158.122452,249.249863 168.984695,249.249863 
	C168.984695,253.964920 169.050903,258.560547 168.907364,263.149628 
	C168.887726,263.777710 167.823288,264.373138 166.763336,264.990082 
z"/>
<path fill="#E4E7EB" opacity="1.000000" stroke="none" 
	d="
M198.154358,401.995544 
	C194.233902,407.203705 189.269379,409.233612 183.182007,409.034363 
	C178.403030,408.877930 173.614868,409.002960 168.869232,409.002960 
	C168.869232,403.547913 168.869232,398.591064 168.869232,393.316772 
	C179.601700,393.316772 190.155426,393.316772 201.596573,393.316772 
	C200.445114,396.300964 199.405655,398.994904 198.154358,401.995544 
z"/>
<path fill="#000000" opacity="1.000000" stroke="none" 
	d="
M149.000000,105.002350 
	C161.128616,105.002350 172.757217,105.002350 184.690964,105.002350 
	C184.690964,120.958450 184.690964,136.674362 184.690964,152.694885 
	C163.704773,152.694885 142.661194,152.694885 121.309288,152.694885 
	C121.309288,137.042068 121.309288,121.326202 121.309288,105.002350 
	C130.327698,105.002350 139.413849,105.002350 149.000000,105.002350 
M169.000000,131.409058 
	C169.000000,128.001053 169.000000,124.593033 169.000000,121.338699 
	C157.936157,121.338699 147.574814,121.338699 137.354828,121.338699 
	C137.354828,126.729858 137.354828,131.776764 137.354828,136.831757 
	C147.951736,136.831757 158.192932,136.831757 168.756805,136.831757 
	C168.843185,135.249237 168.921585,133.812546 169.000000,131.409058 
z"/>
<path fill="#000000" opacity="1.000000" stroke="none" 
	d="
M218.001511,105.002350 
	C233.792618,105.002350 249.083954,105.002350 264.685913,105.002350 
	C264.685913,120.948067 264.685913,136.664047 264.685913,152.689819 
	C243.715057,152.689819 222.671371,152.689819 201.314301,152.689819 
	C201.314301,137.052292 201.314301,121.336311 201.314301,105.002350 
	C206.655731,105.002350 212.078735,105.002350 218.001511,105.002350 
M217.801102,121.113235 
	C217.431564,126.259048 217.062027,131.404861 216.677109,136.764786 
	C227.849869,136.764786 238.209335,136.764786 248.748810,136.764786 
	C248.748810,131.484726 248.748810,126.441505 248.748810,121.014641 
	C238.586349,121.014641 228.671341,121.014641 217.801102,121.113235 
z"/>
<path fill="#000000" opacity="1.000000" stroke="none" 
	d="
M121.002350,206.969269 
	C121.002350,194.182327 121.002350,181.889664 121.002350,169.300522 
	C142.305313,169.300522 163.349594,169.300522 184.696442,169.300522 
	C184.696442,184.970291 184.696442,200.686676 184.696442,216.701233 
	C163.691071,216.701233 142.646835,216.701233 121.002350,216.701233 
	C121.002350,213.666809 121.002350,210.565186 121.002350,206.969269 
M162.411987,185.000000 
	C154.021225,185.000000 145.630478,185.000000 137.338745,185.000000 
	C137.338745,190.695801 137.338745,195.740692 137.338745,200.672943 
	C148.040726,200.672943 158.401215,200.672943 168.656754,200.672943 
	C168.656754,195.296204 168.656754,190.251434 168.656754,185.000000 
	C166.673538,185.000000 165.029205,185.000000 162.411987,185.000000 
z"/>
<path fill="#000000" opacity="1.000000" stroke="none" 
	d="
M400.000000,73.001442 
	C419.136414,73.001442 437.772858,73.001442 456.703491,73.001442 
	C456.703491,78.286072 456.703491,83.354561 456.703491,88.713150 
	C414.370453,88.713150 371.981415,88.713150 329.296570,88.713150 
	C329.296570,83.714096 329.296570,78.645607 329.296570,73.001442 
	C352.658173,73.001442 376.079071,73.001442 400.000000,73.001442 
z"/>
<path fill="#000000" opacity="1.000000" stroke="none" 
	d="
M377.000000,120.998550 
	C361.176270,120.992386 345.852539,120.987373 330.528809,120.971992 
	C330.216187,120.971680 329.903687,120.850937 329.297272,120.725677 
	C329.297272,115.716019 329.297272,110.647980 329.297272,105.288376 
	C360.959869,105.288376 392.682831,105.288376 424.702637,105.288376 
	C424.702637,110.282501 424.702637,115.350266 424.702637,120.998558 
	C409.012115,120.998558 393.256073,120.998558 377.000000,120.998550 
z"/>
<path fill="#000000" opacity="1.000000" stroke="none" 
	d="
M456.962128,106.237228 
	C456.993103,111.337906 456.993103,115.956711 456.993103,120.998558 
	C454.019409,120.998558 451.401306,120.998558 448.783203,120.998558 
	C446.329071,120.998558 443.874908,120.998558 441.001404,120.998558 
	C441.001404,118.012184 441.001373,115.393456 441.001373,112.774719 
	C441.001373,110.321335 441.001404,107.867950 441.001404,104.679367 
	C446.593170,105.057076 451.762177,105.406219 456.962128,106.237228 
z"/>
<path fill="#010202" opacity="1.000000" stroke="none" 
	d="
M273.988190,379.829834 
	C281.691498,386.636993 283.591797,401.626556 278.329102,411.870819 
	C273.322388,421.616669 262.333954,426.840485 251.949554,424.411438 
	C240.365250,421.701721 233.111465,412.410706 233.003220,400.118652 
	C232.979752,397.454498 232.890137,394.782562 233.045044,392.126709 
	C233.524139,383.912659 239.993210,377.393097 248.233688,377.064697 
	C254.052963,376.832764 259.906342,376.754089 265.709717,377.136047 
	C268.409698,377.313690 271.027008,378.747894 273.988190,379.829834 
M258.454529,392.992798 
	C255.367310,392.992798 252.280090,392.992798 248.980820,392.992798 
	C249.403702,398.761810 247.016251,405.039520 253.568420,407.893829 
	C255.816772,408.873322 259.696808,408.481110 261.736359,407.099243 
	C266.854279,403.631683 264.705841,398.074677 264.833099,392.992798 
	C262.700653,392.992798 261.059753,392.992798 258.454529,392.992798 
z"/>
<path fill="#EF7385" opacity="1.000000" stroke="none" 
	d="
M169.000000,131.892456 
	C168.921585,133.812546 168.843185,135.249237 168.756805,136.831757 
	C158.192932,136.831757 147.951736,136.831757 137.354828,136.831757 
	C137.354828,131.776764 137.354828,126.729858 137.354828,121.338699 
	C147.574814,121.338699 157.936157,121.338699 169.000000,121.338699 
	C169.000000,124.593033 169.000000,128.001053 169.000000,131.892456 
z"/>
<path fill="#EF7385" opacity="1.000000" stroke="none" 
	d="
M218.278717,121.063934 
	C228.671341,121.014641 238.586349,121.014641 248.748810,121.014641 
	C248.748810,126.441505 248.748810,131.484726 248.748810,136.764786 
	C238.209335,136.764786 227.849869,136.764786 216.677109,136.764786 
	C217.062027,131.404861 217.431564,126.259048 218.278717,121.063934 
z"/>
<path fill="#EF7385" opacity="1.000000" stroke="none" 
	d="
M162.898438,185.000000 
	C165.029205,185.000000 166.673538,185.000000 168.656754,185.000000 
	C168.656754,190.251434 168.656754,195.296204 168.656754,200.672943 
	C158.401215,200.672943 148.040726,200.672943 137.338745,200.672943 
	C137.338745,195.740692 137.338745,190.695801 137.338745,185.000000 
	C145.630478,185.000000 154.021225,185.000000 162.898438,185.000000 
z"/>
<path fill="#E1E4E8" opacity="1.000000" stroke="none" 
	d="
M258.936707,392.992798 
	C261.059753,392.992798 262.700653,392.992798 264.833099,392.992798 
	C264.705841,398.074677 266.854279,403.631683 261.736359,407.099243 
	C259.696808,408.481110 255.816772,408.873322 253.568420,407.893829 
	C247.016251,405.039520 249.403702,398.761810 248.980820,392.992798 
	C252.280090,392.992798 255.367310,392.992798 258.936707,392.992798 
z"/>
</svg>